# xmcd CD database file
#
# Track frame offsets:
#	150
#	12885
#	22025
#	36913
#	55810
#	71288
#	83370
#	97045
#	115023
#	132173
#	144373
#	157083
#	173210
#	186613
#	194243
#	211968
#	241523
#	254900
#	274050
#	295643
#
# Disc length: 4172 seconds
#
# Revision: 2
# Processed by: cddbd v1.5.2PL0 Copyright (c) Steve Scherf et al.
# Submitted via: CDex 1.51
#
DISCID=23104a14
DTITLE=Various Artist - American Roots (Disk 1)
DYEAR=1992
DGENRE=Country
TTITLE0=Orange Blossom Special - Charly McCoy
TTITLE1=Rawhide - Frankie Laine
TTITLE2=Real Life - JimmyTittle
TTITLE3=Me And Bobby McGee - Kris Kristofferson
TTITLE4=Why Not Me - The Judds
TTITLE5=Stand By Your Man - Tammy Wynette
TTITLE6=Highwayman - W.Jennings and W.Nelson and J.Cash and K.Kristofferson
TTITLE7=Poor Boy Blues - Chet Atkins and Mark Knopfler
TTITLE8=Walk Of Life - TG Sheppard
TTITLE9=Our Baby's Gone - Desert Rose Band
TTITLE10=Give Me One More Chance - Exile
TTITLE11=Talk To Me Fiddle - Charlie Daniels
TTITLE12=The Water Is Wide - James Taylor
TTITLE13=Ballad Of Davy Crockett - Fess Parker
TTITLE14=Soul Searching - Rodney Crowell
TTITLE15=Shallow Rivers - Dan Fogelberg
TTITLE16=Choo Choo Ch'Boogie - Asleep At The Wheel
TTITLE17=Grandpa (Tell Me 'bout  The Good Old Days) - The Judds
TTITLE18=For America - JimmyTittle
TTITLE19=Mexican Wind - Janne Browne
EXTD=YEAR: 1992
EXTT0=
EXTT1=
EXTT2=
EXTT3=
EXTT4=
EXTT5=
EXTT6=
EXTT7=
EXTT8=
EXTT9=
EXTT10=
EXTT11=
EXTT12=
EXTT13=
EXTT14=
EXTT15=
EXTT16=
EXTT17=
EXTT18=
EXTT19=
PLAYORDER=
